<svg width="522" height="284" viewBox="0 0 522 284" fill="none" xmlns="http://www.w3.org/2000/svg">
<rect x="0.829773" width="521.17" height="284" rx="8" fill="white"/>
<g opacity="0.5">
<path opacity="0.1" d="M205.674 259.185C221.871 259.185 235.001 257.081 235.001 254.484C235.001 251.887 221.871 249.782 205.674 249.782C189.477 249.782 176.346 251.887 176.346 254.484C176.346 257.081 189.477 259.185 205.674 259.185Z" fill="#587EEC"/>
<path opacity="0.1" d="M365.093 259.317C385.304 259.317 401.689 257.213 401.689 254.616C401.689 252.019 385.304 249.915 365.093 249.915C344.881 249.915 328.497 252.019 328.497 254.616C328.497 257.213 344.881 259.317 365.093 259.317Z" fill="#587EEC"/>
<path opacity="0.1" d="M99.2657 125.772H129.812V167.328H101.502C101.427 167.755 101.354 168.184 101.276 168.614H129.812V202.128C129.761 202.113 129.716 202.095 129.668 202.077C128.861 201.758 128.06 201.422 127.26 201.061L126.748 200.83C125.945 200.452 125.143 200.051 124.34 199.628C124.06 199.481 123.78 199.328 123.503 199.172C119.048 196.681 115 193.524 111.5 189.811C111.398 189.712 111.302 189.607 111.199 189.511C110.712 188.982 110.233 188.447 109.77 187.9L109.258 187.3C108.71 186.63 108.181 185.942 107.666 185.245C107.591 185.143 107.519 185.04 107.44 184.944C105.347 182.047 103.609 178.911 102.263 175.601C102.221 175.502 102.185 175.394 102.146 175.301C101.733 174.24 101.367 173.168 101.047 172.087C100.909 171.633 100.777 171.185 100.662 170.714C100.62 170.575 100.584 170.44 100.551 170.305C98.8413 163.645 98.6396 156.726 98.6396 149.856C98.6396 149.054 98.6396 148.249 98.6396 147.453C98.6396 144.674 98.6728 141.877 98.7209 139.083C98.7209 138.359 98.751 137.638 98.7661 136.911C98.8082 135.067 98.8684 133.222 98.9466 131.378C98.9647 130.864 98.9888 130.353 99.0159 129.842C99.0159 129.548 99.0309 129.254 99.061 128.959C99.1333 127.89 99.1934 126.829 99.2657 125.772Z" fill="#587EEC"/>
<path opacity="0.1" d="M129.812 79.5022H113.057C115.78 75.2471 118.756 71.1582 121.969 67.2573C124.458 64.2051 127.085 61.2311 129.812 58.3651V79.5022Z" fill="#587EEC"/>
<path opacity="0.1" d="M129.812 80.788V124.486H99.362C99.362 124.36 99.3831 124.231 99.3921 124.105C99.4192 123.759 99.4463 123.414 99.4764 123.071C99.5095 122.669 99.5456 122.263 99.5848 121.869C99.6239 121.476 99.666 120.995 99.7112 120.56C99.7563 120.124 99.7984 119.682 99.8496 119.247C99.9008 118.811 99.9459 118.376 100 117.943C100.054 117.51 100.102 117.072 100.16 116.639C100.205 116.279 100.253 115.921 100.301 115.561C100.37 115.053 100.443 114.542 100.521 114.038C100.521 113.963 100.542 113.884 100.554 113.812C101.103 110.118 101.852 106.455 102.796 102.841C103.785 99.05 105.047 95.3352 106.573 91.726C108.196 87.9503 110.095 84.2994 112.256 80.803L129.812 80.788Z" fill="#587EEC"/>
<path opacity="0.1" d="M137.105 125.769V167.328H202.348V125.769H137.105ZM137.105 168.611V204.3C137.478 204.378 137.848 204.453 138.215 204.516C138.715 204.612 139.212 204.7 139.72 204.775C139.817 204.79 139.916 204.805 140.021 204.814C140.22 204.847 140.425 204.874 140.623 204.901C141.126 204.97 141.625 205.027 142.128 205.072C142.366 205.096 142.607 205.117 142.847 205.135L143.428 205.18C143.744 205.204 144.057 205.222 144.367 205.231C144.56 205.231 144.753 205.249 144.951 205.255C145.102 205.255 145.252 205.255 145.409 205.255C145.565 205.255 145.788 205.255 145.978 205.255C146.236 205.255 146.495 205.255 146.751 205.255H147.097C147.356 205.255 147.615 205.255 147.871 205.231H147.889C148.066 205.231 148.247 205.231 148.428 205.207C148.478 205.21 148.528 205.21 148.578 205.207C148.729 205.207 148.879 205.207 149.023 205.186H149.129L150.137 205.108C150.468 205.078 150.802 205.039 151.139 205.003L151.826 204.922C154.617 204.531 157.378 203.945 160.087 203.167C166.173 201.473 172.127 199.103 178.209 197.366C186.074 195.128 194.763 194.029 202.363 196.766V168.611H137.105ZM202.348 79.5023V24.1752C195.205 24.098 188.081 24.9318 181.15 26.6566C164.629 30.7993 149.806 39.7847 137.105 51.2605V79.4993H140.379V80.7821H137.105V124.486H202.348V80.7851H153.824V79.5023H202.348ZM286.149 60.8136C282.062 60.6694 277.999 59.3776 274.324 57.3829C267.296 53.5676 261.683 47.6765 255.41 42.7047C242.378 32.3494 226.215 26.1009 209.635 24.5507V79.5023H302.772L303.004 79.259L286.149 60.8136ZM294.634 59.3115L303.63 69.1651V56.728C300.617 57.1005 297.978 57.9867 294.646 59.2995L294.634 59.3115ZM303.63 213.162V168.611H284.461C284.41 168.422 284.358 168.229 284.298 168.037C284.355 168.229 284.404 168.422 284.458 168.611H209.647V200.83C210.357 201.356 211.058 201.909 211.753 202.47C212.503 203.071 213.243 203.705 213.987 204.327L214.736 204.946C215.094 205.246 215.455 205.547 215.82 205.829C216.542 206.414 217.271 206.991 218.008 207.559C218.372 207.86 218.745 208.13 219.115 208.413C224.993 212.898 231.192 216.945 237.665 220.522C239.115 221.323 240.579 222.105 242.056 222.869C243.04 223.37 244.03 223.869 245.024 224.353C246.516 225.08 248.021 225.781 249.538 226.455C263.524 232.722 278.312 237.021 293.481 239.232C296.85 239.729 300.232 240.119 303.627 240.404V213.159H303.928L303.63 213.162ZM209.647 80.7851V124.486H303.642V80.7851H209.647ZM209.647 125.769V167.328H303.642V125.769H209.647ZM310.938 56.6739V70.547L322.42 57.9717C318.616 57.3589 314.788 56.9213 310.938 56.6589V56.6739ZM310.938 125.784V167.328H402.36V125.769L310.938 125.784ZM402.026 216.461L402.348 168.611H310.938V240.881C316.826 241.128 322.724 241.058 328.605 240.671V240.671H328.708C331.517 240.495 334.313 240.238 337.096 239.902H337.159C352.006 238.177 366.525 234.311 380.259 228.423L402.026 216.461ZM419.988 132.612C419.645 131.804 419.287 131.002 418.923 130.209C418.243 128.707 417.523 127.247 416.783 125.787H409.65V167.328H427.684C427.675 155.564 424.693 143.547 419.997 132.597L419.988 132.612ZM409.65 168.626V209.783C414.73 204.922 419.022 199.361 422.113 193.004C425.83 185.35 427.531 177.062 427.669 168.62L409.65 168.626ZM409.65 113.674V124.489H416.115C414.159 120.766 412.004 117.151 409.659 113.659L409.65 113.674ZM347.648 64.8271C347.173 64.6469 346.697 64.4636 346.218 64.2864C341.171 62.426 336.014 60.8789 330.775 59.654L313.204 78.9015L312.867 79.259L313.093 79.5053H375.63C366.92 73.5212 357.531 68.5891 347.657 64.8121L347.648 64.8271ZM377.463 80.8001H312.22L310.938 81.9717V124.486H322.176H322.194H402.372V103.893C395.119 95.1376 386.748 87.3688 377.472 80.7851L377.463 80.8001Z" fill="#587EEC"/>
<path opacity="0.1" d="M129.812 102.829V124.486H99.362C99.362 124.36 99.3831 124.231 99.3921 124.105C99.4192 123.759 99.4463 123.414 99.4764 123.071C99.5095 122.669 99.5456 122.263 99.5848 121.87C99.6239 121.476 99.666 120.995 99.7112 120.56C99.7563 120.124 99.7984 119.683 99.8496 119.247C99.9008 118.811 99.9459 118.376 100 117.943C100.054 117.511 100.102 117.072 100.16 116.639C100.205 116.279 100.253 115.921 100.301 115.561C100.37 115.053 100.443 114.542 100.521 114.038C100.521 113.963 100.542 113.885 100.554 113.812C101.103 110.118 101.852 106.456 102.796 102.841L129.812 102.829Z" fill="#587EEC"/>
<path opacity="0.1" d="M99.2657 125.772H129.812V167.328H101.502C101.427 167.755 101.354 168.184 101.276 168.614H129.812V202.128C129.761 202.113 129.716 202.095 129.668 202.077C128.861 201.758 128.06 201.422 127.26 201.061L126.748 200.83C125.945 200.452 125.143 200.051 124.34 199.628C124.06 199.481 123.78 199.328 123.503 199.172C119.048 196.681 115 193.524 111.5 189.811C111.398 189.712 111.302 189.607 111.199 189.511C110.712 188.982 110.233 188.447 109.77 187.9L109.258 187.3C108.71 186.63 108.181 185.942 107.666 185.245C107.591 185.143 107.519 185.04 107.44 184.944C105.347 182.047 103.609 178.911 102.263 175.601C102.221 175.502 102.185 175.394 102.146 175.301C101.733 174.24 101.367 173.168 101.047 172.087C100.909 171.633 100.777 171.185 100.662 170.714C100.62 170.575 100.584 170.44 100.551 170.305C98.8413 163.645 98.6396 156.726 98.6396 149.856C98.6396 149.054 98.6396 148.249 98.6396 147.453C98.6396 144.674 98.6728 141.877 98.7209 139.083C98.7209 138.359 98.751 137.638 98.7661 136.911C98.8082 135.067 98.8684 133.222 98.9466 131.378C98.9647 130.864 98.9888 130.353 99.0159 129.842C99.0159 129.548 99.0309 129.254 99.061 128.959C99.1333 127.89 99.1934 126.829 99.2657 125.772Z" fill="#587EEC"/>
<path opacity="0.1" d="M160.072 87.0426V124.486H137.105V87.0426H140.379V74.3651H153.821V87.0426H160.072Z" fill="#587EEC"/>
<path opacity="0.1" d="M160.072 125.769H137.108V167.325H160.072V125.769Z" fill="#587EEC"/>
<path opacity="0.1" d="M137.105 168.614H160.072V203.161C157.363 203.938 154.602 204.524 151.811 204.913L151.124 204.997C150.787 205.036 150.453 205.069 150.122 205.102C149.791 205.135 149.448 205.159 149.114 205.18H149.008C148.864 205.18 148.707 205.198 148.566 205.201H148.412C148.232 205.201 148.051 205.219 147.871 205.225C147.615 205.24 147.359 205.243 147.097 205.246C146.986 205.246 146.881 205.246 146.769 205.246C146.51 205.246 146.254 205.246 145.996 205.246H145.427C145.273 205.246 145.126 205.246 144.966 205.246L144.385 205.225C144.084 205.225 143.759 205.192 143.446 205.171L142.868 205.129L142.149 205.063C141.643 205.018 141.141 204.961 140.644 204.892L140.042 204.808L139.741 204.766C139.239 204.687 138.742 204.603 138.236 204.507C137.866 204.444 137.499 204.366 137.126 204.291L137.105 168.614Z" fill="#587EEC"/>
<path opacity="0.1" d="M303.642 82.6206H284.704V124.483H303.642V82.6206Z" fill="#587EEC"/>
<path opacity="0.1" d="M303.645 125.769V167.328H209.647V149.402H259.714V159.977H284.705V125.769H303.645Z" fill="#587EEC"/>
<path opacity="0.1" d="M303.943 213.171H303.642V240.434C300.251 240.147 296.87 239.758 293.499 239.265C278.323 237.047 263.528 232.738 249.538 226.461C245.499 224.647 241.542 222.666 237.668 220.519C231.195 216.94 224.995 212.893 219.115 208.41C217.639 207.28 216.181 206.124 214.742 204.943C213.746 204.123 212.756 203.282 211.753 202.464C211.058 201.903 210.357 201.35 209.647 200.821V168.614H284.455C284.404 168.422 284.352 168.229 284.298 168.04C284.355 168.229 284.41 168.422 284.461 168.614H303.642V213.153C303.744 213.156 303.844 213.165 303.943 213.171Z" fill="#587EEC"/>
<path opacity="0.1" d="M353.033 79.5021H340.693V75.6749H346.224V64.2742C346.704 64.4484 347.182 64.6277 347.657 64.8119V75.6749H353.033V79.5021Z" fill="#587EEC"/>
<path opacity="0.1" d="M382.763 124.486H322.182C322.182 124.486 322.182 124.486 322.203 124.501L322.176 124.486H310.938V82.6235H314.122V113.566H328.674V95.2409H340.695V80.788H353.036V95.2529H365.057V113.578H382.763V124.486Z" fill="#587EEC"/>
<path opacity="0.1" d="M310.938 125.769V167.328H382.763V125.769H310.938ZM402.261 216.247L402.36 183.352H382.763V168.632H310.938V240.881C316.826 241.128 322.724 241.058 328.605 240.671V240.671H328.708C331.517 240.495 334.313 240.238 337.096 239.902H337.159C352.006 238.177 366.524 234.311 380.259 228.423" fill="#587EEC"/>
<path opacity="0.1" d="M410.926 168.614H427.681C427.534 177.052 425.836 185.341 422.122 192.995C419.031 199.355 414.736 204.916 409.662 209.773V183.337H410.926V168.614Z" fill="#587EEC"/>
<path opacity="0.1" d="M427.69 167.328H410.926V132.597H419.997C424.693 143.547 427.675 155.564 427.69 167.328Z" fill="#587EEC"/>
<path opacity="0.1" d="M303.645 94.2585H293.499V107.384H303.645V94.2585Z" fill="#587EEC"/>
<path opacity="0.1" d="M303.645 121.464H293.499V124.486H303.645V121.464Z" fill="#587EEC"/>
<path opacity="0.1" d="M303.645 125.769H293.499V134.586H303.645V125.769Z" fill="#587EEC"/>
<path opacity="0.1" d="M303.645 148.669H293.499V161.794H303.645V148.669Z" fill="#587EEC"/>
<path opacity="0.1" d="M303.645 175.875H293.499V189H303.645V175.875Z" fill="#587EEC"/>
<path opacity="0.1" d="M303.642 213.153C303.744 213.153 303.844 213.153 303.943 213.171H303.642V216.22H293.499V203.08H303.642V213.153Z" fill="#587EEC"/>
<path opacity="0.1" d="M303.642 230.28V240.418C300.251 240.132 296.87 239.743 293.499 239.25V230.28H303.642Z" fill="#587EEC"/>
<path opacity="0.1" d="M253.129 166.364H209.647V167.328H253.129V166.364Z" fill="#587EEC"/>
<path opacity="0.1" d="M253.129 168.611H209.647V172.306H253.129V168.611Z" fill="#587EEC"/>
<path opacity="0.1" d="M253.129 184.419H209.647V190.361H253.129V184.419Z" fill="#587EEC"/>
<path opacity="0.1" d="M253.126 202.474V208.416H219.115C217.639 207.29 216.18 206.135 214.739 204.949C213.743 204.129 212.756 203.288 211.75 202.474H253.126Z" fill="#587EEC"/>
<path opacity="0.1" d="M253.126 220.525V226.461H249.535C245.5 224.645 241.544 222.663 237.668 220.516L253.126 220.525Z" fill="#587EEC"/>
<path opacity="0.1" d="M337.168 129.797H328.608V138.341H337.168V129.797Z" fill="#587EEC"/>
<path opacity="0.1" d="M151.832 89.9897H143.272V98.5335H151.832V89.9897Z" fill="#587EEC"/>
<path opacity="0.1" d="M151.832 109.835H143.272V118.379H151.832V109.835Z" fill="#587EEC"/>
<path opacity="0.1" d="M151.832 129.68H143.272V138.224H151.832V129.68Z" fill="#587EEC"/>
<path opacity="0.1" d="M151.832 149.523H143.272V158.066H151.832V149.523Z" fill="#587EEC"/>
<path opacity="0.1" d="M151.832 169.368H143.272V177.912H151.832V169.368Z" fill="#587EEC"/>
<path opacity="0.1" d="M151.832 189.213H143.272V197.757H151.832V189.213Z" fill="#587EEC"/>
<path opacity="0.1" d="M369.845 129.797H361.285V138.341H369.845V129.797Z" fill="#587EEC"/>
<path opacity="0.1" d="M337.168 150.871H328.608V159.415H337.168V150.871Z" fill="#587EEC"/>
<path opacity="0.1" d="M369.845 150.871H361.285V159.415H369.845V150.871Z" fill="#587EEC"/>
<path opacity="0.1" d="M337.168 171.942H328.608V180.486H337.168V171.942Z" fill="#587EEC"/>
<path opacity="0.1" d="M369.845 171.942H361.285V180.486H369.845V171.942Z" fill="#587EEC"/>
<path opacity="0.1" d="M337.168 193.016H328.608V201.56H337.168V193.016Z" fill="#587EEC"/>
<path opacity="0.1" d="M369.845 193.016H361.285V201.56H369.845V193.016Z" fill="#587EEC"/>
<path opacity="0.1" d="M337.168 214.09H328.608V222.634H337.168V214.09Z" fill="#587EEC"/>
<path opacity="0.1" d="M369.845 214.09H361.285V222.634H369.845V214.09Z" fill="#587EEC"/>
<path opacity="0.1" d="M328.608 240.671V235.161H337.165V239.887L328.608 240.671Z" fill="#587EEC"/>
<path opacity="0.1" d="M100.518 113.807V118.694H129.812V113.807H100.518ZM103.437 118.388H101.047V114.107H103.455L103.437 118.388ZM106.354 118.388H103.946V114.107H106.354V118.388ZM109.264 118.388H106.856V114.107H109.264V118.388ZM112.181 118.388H109.776V114.107H112.184L112.181 118.388ZM115.094 118.388H112.686V114.107H115.094V118.388ZM118.011 118.388H115.603V114.107H118.011V118.388ZM120.927 118.388H118.519V114.107H120.927V118.388ZM123.841 118.388H121.433V114.107H123.841V118.388ZM126.754 118.388H124.346V114.107H126.754V118.388ZM129.668 118.388H127.26V114.107H129.668V118.388Z" fill="#587EEC"/>
<path opacity="0.1" d="M100.518 128.028V132.916H129.812V128.028H100.518ZM103.437 132.606H101.047V128.338H103.455L103.437 132.606ZM106.354 132.606H103.946V128.338H106.354V132.606ZM109.264 132.606H106.856V128.338H109.264V132.606ZM112.181 132.606H109.776V128.338H112.184L112.181 132.606ZM115.094 132.606H112.686V128.338H115.094V132.606ZM118.011 132.606H115.603V128.338H118.011V132.606ZM120.927 132.606H118.519V128.338H120.927V132.606ZM123.841 132.606H121.433V128.338H123.841V132.606ZM126.754 132.606H124.346V128.338H126.754V132.606ZM129.668 132.606H127.26V128.338H129.668V132.606Z" fill="#587EEC"/>
<path opacity="0.1" d="M100.518 142.255V147.152H129.812V142.255H100.518ZM103.437 146.834H101.047V142.562H103.455L103.437 146.834ZM106.354 146.834H103.946V142.562H106.354V146.834ZM109.264 146.834H106.856V142.562H109.264V146.834ZM112.181 146.834H109.776V142.562H112.184L112.181 146.834ZM115.094 146.834H112.686V142.562H115.094V146.834ZM118.011 146.834H115.603V142.562H118.011V146.834ZM120.927 146.834H118.519V142.562H120.927V146.834ZM123.841 146.834H121.433V142.562H123.841V146.834ZM126.754 146.834H124.346V142.562H126.754V146.834ZM129.668 146.834H127.26V142.562H129.668V146.834Z" fill="#587EEC"/>
<path opacity="0.1" d="M100.518 156.483V161.365H129.812V156.483H100.518ZM103.437 161.061H101.047V156.786H103.455L103.437 161.061ZM106.354 161.061H103.946V156.786H106.354V161.061ZM109.264 161.061H106.856V156.786H109.264V161.061ZM112.181 161.061H109.776V156.786H112.184L112.181 161.061ZM115.094 161.061H112.686V156.786H115.094V161.061ZM118.011 161.061H115.603V156.786H118.011V161.061ZM120.927 161.061H118.519V156.786H120.927V161.061ZM123.841 161.061H121.433V156.786H123.841V161.061ZM126.754 161.061H124.346V156.786H126.754V161.061ZM129.668 161.061H127.26V156.786H129.668V161.061Z" fill="#587EEC"/>
<path opacity="0.1" d="M100.644 170.708C100.762 171.167 100.894 171.627 101.032 172.081V171.014H103.44V175.286H102.152C102.191 175.385 102.23 175.493 102.269 175.586H129.812V170.708H100.644ZM106.363 175.286H103.955V171.014H106.363V175.286ZM109.273 175.286H106.865V171.014H109.273V175.286ZM112.19 175.286H109.776V171.014H112.184L112.19 175.286ZM115.103 175.286H112.695V171.014H115.103V175.286ZM118.02 175.286H115.612V171.014H118.02V175.286ZM120.936 175.286H118.528V171.014H120.936V175.286ZM123.85 175.286H121.442V171.014H123.85V175.286ZM126.763 175.286H124.355V171.014H126.763V175.286ZM129.677 175.286H127.269V171.014H129.677V175.286Z" fill="#587EEC"/>
<path opacity="0.1" d="M107.446 184.935C107.522 185.031 107.594 185.139 107.672 185.236H109.264V187.287C109.436 187.492 109.604 187.696 109.779 187.888V185.224H112.187V189.51H111.212C111.308 189.61 111.401 189.715 111.513 189.811H129.821V184.935H107.446ZM115.094 189.51H112.686V185.242H115.094V189.51ZM118.011 189.51H115.603V185.242H118.011V189.51ZM120.927 189.51H118.519V185.242H120.927V189.51ZM123.841 189.51H121.433V185.242H123.841V189.51ZM126.754 189.51H124.346V185.242H126.754V189.51ZM129.668 189.51H127.26V185.242H129.668V189.51Z" fill="#587EEC"/>
<path opacity="0.1" d="M123.516 199.16C123.789 199.316 124.069 199.46 124.352 199.616V199.466H126.76V200.818L127.272 201.055V199.466H129.68V202.065C129.726 202.088 129.774 202.106 129.824 202.119V199.16H123.516Z" fill="#587EEC"/>
<path opacity="0.1" d="M322.182 124.486H322.2H322.182ZM303.642 213.15H303.943H303.642ZM284.298 168.037C284.355 168.229 284.404 168.421 284.458 168.611C284.41 168.421 284.358 168.229 284.298 168.037ZM322.182 124.477H322.2H322.182ZM140.391 79.4932V80.7759H153.836V79.4932H140.391ZM303.642 213.15H303.943H303.642ZM284.298 168.037C284.355 168.229 284.404 168.421 284.458 168.611C284.41 168.421 284.358 168.229 284.298 168.037ZM322.182 124.477H322.2H322.182ZM303.642 213.141H303.943H303.642ZM284.298 168.037C284.355 168.229 284.404 168.421 284.458 168.611C284.41 168.421 284.358 168.229 284.298 168.037Z" fill="#587EEC"/>
<path d="M234.032 138.23C234.032 138.23 232.846 138.065 232.846 136.34C232.846 134.616 231.997 131.395 231.997 131.395C231.997 131.38 231.263 125.787 230.248 124.898C229.234 124.008 227.931 118.787 227.931 118.787C227.931 118.787 227.708 115.954 227.254 115.344C226.799 114.735 226.185 113.241 225.279 111.112C224.373 108.982 220.596 107.507 220.596 107.507C220.596 107.507 213.767 103.553 211.832 102.264C211.656 102.158 211.491 102.035 211.341 101.895C211.004 101.453 209.535 101.444 209.535 101.444C209.382 100.477 209.234 99.3654 209.186 98.359C209.186 98.2509 209.186 98.1427 209.171 98.0346C211.329 96.7614 212.954 94.7539 213.749 92.3808C213.785 92.2666 213.815 92.1465 213.848 92.0323C213.977 91.9898 214.096 91.9208 214.197 91.8298C214.299 91.7387 214.379 91.6276 214.435 91.5036C214.61 91.1161 214.613 90.6624 214.829 90.3019C215.082 89.8753 215.564 89.647 215.943 89.3256C216.9 88.5145 217.147 87.1476 217.102 85.9039C217.072 84.8975 216.909 83.8821 216.972 82.8817L216.99 82.6294C217.008 82.4792 217.029 82.329 217.057 82.1848C217.204 81.4397 217.526 80.7368 217.707 79.9978C217.887 79.2587 217.905 78.4266 217.484 77.7897C216.867 76.8554 215.582 76.6692 214.453 76.573C213.174 76.4649 212.03 76.6061 211.212 75.5456C210.828 74.9914 210.397 74.4717 209.923 73.9925C209.755 73.8363 208.118 72.8389 208.118 72.7728C206.519 72.0341 204.708 71.8954 203.016 72.3823C202.167 72.6286 201.367 73.0312 200.506 73.2325C198.649 73.6711 196.512 73.1964 194.935 74.2569C194.056 74.8577 193.529 75.813 193.035 76.7443C192.634 77.5113 192.227 78.2774 191.814 79.0424C191.148 80.3012 190.471 81.5809 190.191 82.9749C190.132 83.2782 190.096 83.5854 190.083 83.8941V83.9091C190.083 84.0203 190.083 84.1314 190.083 84.2426V84.3838C190.083 84.4889 190.083 84.5911 190.101 84.6842C190.119 84.7773 190.116 84.8074 190.125 84.8705C190.134 84.9335 190.149 85.0747 190.167 85.1709C190.185 85.267 190.221 85.4352 190.257 85.5674C190.273 85.6245 190.294 85.6786 190.312 85.7326C190.342 85.8348 190.378 85.9339 190.417 86.0331C190.438 86.0841 190.459 86.1382 190.483 86.1893C190.528 86.2944 190.583 86.3966 190.637 86.4897C190.661 86.5317 190.679 86.5708 190.703 86.6099C190.787 86.7496 190.879 86.884 190.98 87.0124C191.624 87.8145 192.572 88.3252 193.273 89.0762C193.273 89.1063 193.273 89.1363 193.273 89.1634C193.273 89.2475 193.273 89.3286 193.273 89.4127C193.31 91.0877 193.757 92.7282 194.574 94.1916C195.392 95.6549 196.555 96.8969 197.963 97.8093C197.963 97.9234 197.978 98.0406 197.984 98.1547C198.042 99.0465 198.031 99.9414 197.95 100.831C197.828 100.687 197.674 100.573 197.502 100.496C197.329 100.419 197.141 100.381 196.951 100.387C196.822 100.381 196.692 100.392 196.566 100.42L196.539 100.399V100.426C195.877 100.588 195.061 101.276 194.282 103.232C194.282 103.232 191.91 105.899 190.104 105.788C188.298 105.677 183.726 108.564 183.726 108.564C183.726 108.564 179.266 111.454 178.309 114.398C177.774 116.068 177.132 117.701 176.388 119.289L170.874 130.629L169.857 139.627C169.857 139.627 170.42 143.628 170.309 144.238C170.197 144.848 172.623 150.349 172.623 150.349C172.623 150.349 180.638 164.405 183.913 165.126L184.148 164.961C184.288 165.034 184.436 165.089 184.59 165.126L185.264 164.651C185.305 165.18 185.288 165.712 185.213 166.237C184.762 167.625 185.382 176.683 186.17 178.458C186.959 180.234 186.679 203.513 186.679 203.513L186.567 205.567C186.567 205.567 186.567 205.634 186.595 205.748L186.567 206.234L186.649 206.276C186.733 206.928 186.706 207.59 186.567 208.232C186.285 209.133 186.17 211.681 186.17 211.681C186.17 211.681 183.916 226.065 184.984 228.955C186.053 231.845 186.962 235.011 186.962 235.011C186.962 235.011 188.09 238.616 187.016 239.232C185.941 239.848 182.887 240.881 183.516 242.383C184.087 243.771 186.257 247.49 186.58 248.034L186.552 248.319L186.11 253.105C186.182 253.737 186.353 254.353 186.619 254.931C187.103 255.974 188.045 257.055 189.836 256.938C190.137 256.917 190.486 256.881 190.823 256.836C194.101 256.397 198.137 254.937 198.137 254.937C197.928 254.805 197.735 254.646 197.565 254.466V254.466C197.404 254.31 197.276 254.123 197.19 253.917C197.104 253.71 197.06 253.488 197.063 253.264C197.111 252.393 195.476 248.241 195.07 247.22C195.007 247.073 194.974 246.988 194.974 246.988C194.974 246.988 198.7 243.101 198.08 239.655C198.08 239.655 193.956 237.252 195.314 235.933C196.671 234.614 199.097 230.826 199.097 230.826C199.097 230.826 199.209 216.662 199.097 214.547C198.981 213.079 199.051 211.602 199.305 210.152C199.35 209.933 199.404 209.719 199.461 209.509C201.339 209.789 203.234 209.932 205.132 209.939C205.824 209.939 206.528 209.938 207.239 209.896C207.239 210.097 207.248 210.313 207.266 210.545C207.422 214.054 207.714 220.207 207.952 222.493C208.289 225.77 210.152 234.602 210.152 234.602C210.152 234.602 206.598 236.88 210.772 242.491C210.772 242.491 210.772 244.525 210.495 244.819C210.2 245.782 209.961 246.761 209.782 247.752C209.607 248.809 209.535 249.878 209.818 250.434C210.495 251.762 214.558 251.654 214.558 251.654L214.658 251.636C215.425 251.557 216.2 251.63 216.938 251.853C217.677 252.075 218.363 252.441 218.959 252.931C220.503 254.168 226.363 253.625 229.535 253.231C230.778 253.075 231.609 252.931 231.609 252.931C231.649 252.79 231.663 252.644 231.651 252.498C231.618 251.72 231.007 250.014 226.865 248.491C226.865 248.491 222.971 245.877 223.025 243.6H222.944H222.492C222.82 243.582 223.031 243.6 223.031 243.6C223.031 243.6 221.505 238.042 222.128 237.592C222.751 237.141 220.885 230.982 220.885 230.982C220.885 230.982 219.817 220.648 219.759 219.924C219.762 219.303 219.856 218.685 220.039 218.092L219.759 212.426C219.759 212.426 219.705 210.542 219.759 209.929C219.75 209.398 219.707 208.867 219.63 208.34C219.603 208.13 219.576 207.911 219.546 207.694C221.005 207.325 221.953 206.982 221.953 206.982L221.785 187.26C223.025 184.857 223.254 179.585 223.248 175.845C223.248 173.441 223.139 171.663 223.139 171.663L224.834 168.902C224.834 168.902 225.225 165.598 224.605 164.874C224.331 164.546 224.455 164.207 224.68 163.927C224.798 163.834 224.921 163.75 225.051 163.675C225.051 163.675 225.032 163.648 225.011 163.609C225.13 163.51 225.256 163.421 225.388 163.341C225.388 163.341 224.786 162.41 225.324 162.017C225.83 162.359 226.282 162.617 226.625 162.828C226.601 163.047 226.577 163.173 226.577 163.173L226.721 162.873C227.052 163.059 227.254 163.173 227.254 163.173C227.254 163.173 229.908 157.895 229.851 157.117C229.794 156.339 231.657 153.061 231.657 153.061C231.657 153.061 231.883 151.34 232.9 150.619C233.917 149.898 233.689 144.674 233.689 144.674C233.689 144.674 233.972 141.952 234.649 140.84C235.326 139.729 234.032 138.23 234.032 138.23ZM183.239 135.914L183.29 137.172C182.989 136.689 182.772 136.34 182.772 136.34L183.239 135.914Z" fill="url(#paint0_linear_6_373)"/>
<path d="M227.398 160.893L226.748 163.657C226.748 163.657 221.541 161.004 220.602 157.634C219.663 154.263 222.173 152.983 222.173 152.983L227.025 155.035L227.398 160.893Z" fill="white"/>
<path opacity="0.1" d="M227.398 160.893L226.748 163.657C226.748 163.657 221.541 161.004 220.602 157.634C219.663 154.263 222.173 152.983 222.173 152.983L227.025 155.035L227.398 160.893Z" fill="black"/>
<path d="M198.176 254.956C198.176 254.956 193.361 256.722 190.05 256.944C188.292 257.061 187.368 255.986 186.893 254.95C186.633 254.373 186.465 253.76 186.396 253.132L186.826 248.37L187.055 245.835L194.089 244.011L195.085 247.052L195.179 247.283C195.579 248.298 197.183 252.429 197.135 253.291C197.133 253.512 197.176 253.731 197.26 253.935C197.345 254.139 197.47 254.323 197.628 254.478C197.79 254.66 197.974 254.82 198.176 254.956V254.956Z" fill="white"/>
<path d="M231.07 252.534C231.082 252.679 231.068 252.824 231.028 252.964C231.028 252.964 220.729 254.679 218.622 252.964C218.028 252.463 217.335 252.091 216.589 251.873C215.843 251.655 215.059 251.594 214.288 251.696C214.288 251.696 210.303 251.804 209.638 250.495C209.361 249.945 209.433 248.878 209.604 247.827C209.779 246.842 210.013 245.868 210.303 244.91L210.462 244.784L211.41 244.024L222.51 243.696H222.595C222.54 245.961 226.363 248.56 226.363 248.56C230.423 250.062 231.022 251.759 231.07 252.534Z" fill="white"/>
<path opacity="0.1" d="M231.07 252.534C231.081 252.679 231.065 252.824 231.025 252.964C231.025 252.964 220.729 254.679 218.622 252.964C218.028 252.463 217.336 252.092 216.59 251.873C215.845 251.655 215.061 251.595 214.291 251.696C214.291 251.696 210.303 251.804 209.641 250.494C209.364 249.942 209.433 248.878 209.604 247.827C211.139 247.98 213.562 248.362 214.513 249.272C215.952 250.657 218.39 252.039 219.886 252.147C221.057 252.222 228.06 252.444 231.07 252.534Z" fill="black"/>
<path opacity="0.1" d="M198.176 254.956C198.176 254.956 193.361 256.722 190.05 256.944C188.292 257.061 187.368 255.986 186.896 254.947C188.121 255.358 189.821 255.791 190.715 255.394C191.774 254.926 195.531 254.622 197.638 254.493C197.798 254.668 197.979 254.823 198.176 254.956V254.956Z" fill="black"/>
<path d="M205.321 112.605C201.349 111.064 196.238 105.972 197.514 103.592C197.797 102.992 197.966 102.344 198.011 101.682C198.093 100.783 198.105 99.8788 198.047 98.978C197.957 97.5027 197.779 96.034 197.514 94.58C197.514 94.58 209.917 94.8593 209.195 96.6828C208.984 97.2176 208.951 98.1459 209.008 99.1853C209.066 100.225 209.216 101.399 209.373 102.394C209.589 103.758 209.806 104.797 209.806 104.797C209.806 104.797 209.048 105.857 208.602 105.915C208.157 105.972 211.022 114.801 205.321 112.605Z" fill="#CF6F80"/>
<path opacity="0.1" d="M195.17 247.283L195.076 247.385C191.368 242.909 186.884 248.488 186.884 248.488L186.817 248.37L187.046 245.835L194.08 244.011L195.076 247.052L195.17 247.283Z" fill="black"/>
<path opacity="0.1" d="M222.598 244.012C222.598 244.012 219.889 243.954 218.444 245.228C216.999 246.502 210.017 245.505 210.318 245.228C210.407 245.091 210.461 244.934 210.474 244.772L211.422 244.012L222.522 243.684C222.565 243.885 222.598 244.012 222.598 244.012Z" fill="black"/>
<path d="M199.783 208.86C199.582 209.358 199.429 209.874 199.326 210.401C199.075 211.845 199.005 213.314 199.118 214.775C199.23 216.878 199.118 230.971 199.118 230.971C199.118 230.971 196.738 234.729 195.41 236.054C194.083 237.378 198.119 239.758 198.119 239.758C198.721 243.182 195.073 247.052 195.073 247.052C191.365 242.576 186.881 248.157 186.881 248.157C186.881 248.157 184.443 243.951 183.835 242.449C183.227 240.947 186.215 239.908 187.266 239.298C188.316 238.688 187.215 235.092 187.215 235.092C187.215 235.092 186.327 231.941 185.273 229.066C184.22 226.191 186.435 211.879 186.435 211.879C186.435 211.879 186.549 209.338 186.823 208.452C186.962 207.812 186.989 207.154 186.905 206.505C186.887 206.286 186.865 206.102 186.85 205.979C186.835 205.856 186.823 205.799 186.823 205.799L186.865 205.727L188.37 202.927C188.37 202.927 200.506 207.097 199.783 208.86Z" fill="#587EEC"/>
<path d="M222.598 243.681C222.598 243.681 219.889 243.624 218.444 244.883C216.999 246.142 210.017 245.159 210.318 244.883C210.619 244.607 210.595 242.561 210.595 242.561C206.498 236.979 209.993 234.714 209.993 234.714C209.993 234.714 208.163 225.927 207.832 222.667C207.6 220.39 207.314 214.271 207.16 210.777C207.094 209.275 207.055 208.241 207.055 208.241L210.402 207.569L210.832 207.481L218.905 205.865C218.905 205.865 219.127 207.367 219.278 208.596C219.353 209.121 219.395 209.649 219.404 210.179C219.35 210.78 219.404 212.661 219.404 212.661L219.678 218.299C219.499 218.891 219.407 219.505 219.404 220.123C219.458 220.841 220.509 231.121 220.509 231.121C220.509 231.121 222.336 237.255 221.713 237.697C221.09 238.139 222.598 243.681 222.598 243.681Z" fill="#587EEC"/>
<path opacity="0.1" d="M209.195 96.6828C208.984 97.2176 208.951 98.1459 209.008 99.1853C207.347 100.184 205.437 100.694 203.498 100.658C201.559 100.622 199.67 100.041 198.047 98.981C197.957 97.5047 197.78 96.035 197.514 94.58C197.514 94.58 209.917 94.8533 209.195 96.6828Z" fill="black"/>
<path d="M213.99 90.0438C213.992 91.1263 213.821 92.2023 213.484 93.2311C212.73 95.5364 211.184 97.5014 209.119 98.7788C207.053 100.056 204.602 100.564 202.198 100.212C199.794 99.8598 197.593 98.671 195.982 96.8554C194.371 95.0398 193.456 92.7144 193.397 90.2901C193.397 90.206 193.397 90.1279 193.397 90.0438C193.373 88.6792 193.622 87.3236 194.129 86.0561C194.637 84.7886 195.391 83.6345 196.35 82.6613C197.308 81.688 198.452 80.915 199.713 80.3873C200.974 79.8596 202.327 79.5879 203.695 79.5879C205.062 79.5879 206.416 79.8596 207.677 80.3873C208.938 80.915 210.081 81.688 211.04 82.6613C211.998 83.6345 212.753 84.7886 213.26 86.0561C213.767 87.3236 214.016 88.6792 213.993 90.0438H213.99Z" fill="#CF6F80"/>
<path opacity="0.1" d="M205.321 112.605C201.349 111.064 196.238 105.972 197.514 103.592C197.797 102.992 197.966 102.344 198.011 101.682L203.449 106.143L206.814 108.898L209.373 102.397C209.589 103.761 209.806 104.8 209.806 104.8C209.806 104.8 209.048 105.861 208.602 105.918C208.157 105.975 211.022 114.801 205.321 112.605Z" fill="black"/>
<path d="M219.386 132.321L214.844 208.476L208.921 208.863L193.583 164.705L196.1 112.28L196.629 101.204L203.449 106.795L206.817 109.55L209.451 102.859L214.348 107.119L219.386 132.321Z" fill="#587EEC"/>
<path opacity="0.1" d="M199.784 208.86C199.582 209.358 199.429 209.874 199.326 210.401C195.016 209.737 190.83 208.432 186.908 206.529L186.826 206.487L186.853 206.003L186.869 205.751L188.373 202.951C188.373 202.951 200.506 207.097 199.784 208.86Z" fill="black"/>
<path opacity="0.1" d="M210.471 210.413C209.369 210.6 208.258 210.727 207.142 210.792C207.076 209.29 207.037 208.256 207.037 208.256L210.384 207.583L210.471 210.413Z" fill="black"/>
<path opacity="0.1" d="M219.26 208.611C217.12 209.167 213.815 209.792 210.856 209.401L210.814 207.496L218.887 205.88C218.887 205.88 219.109 207.367 219.26 208.611Z" fill="black"/>
<path opacity="0.1" d="M210.802 209.749C198.462 211.852 187.16 205.823 187.16 205.823L187.269 203.78C187.269 203.78 187.549 180.621 186.772 178.846C185.996 177.07 185.391 168.067 185.83 166.685C186.27 165.303 184.226 144.581 184.226 144.581L183.895 136.169L171.777 131.269L177.195 119.998C177.927 118.418 178.556 116.792 179.079 115.131C180.021 112.205 184.394 109.33 184.394 109.33C184.394 109.33 188.879 106.458 190.652 106.566C192.425 106.675 194.748 104.025 194.748 104.025C196.464 99.66 198.017 101.637 198.017 101.637C198.017 101.844 198.017 101.637 197.932 102.283C197.331 107.074 207.666 122.215 207.814 122.482L208.798 146.413L209.794 176.698L210.802 209.749Z" fill="black"/>
<path d="M210.471 209.749C198.131 211.852 186.826 205.823 186.826 205.823L186.938 203.78C186.938 203.78 187.218 180.621 186.438 178.846C185.659 177.07 185.057 168.067 185.499 166.685C185.941 165.303 183.895 144.581 183.895 144.581L183.561 136.169L171.437 131.251L176.855 119.98C177.585 118.399 178.214 116.774 178.739 115.113C179.678 112.187 184.054 109.312 184.054 109.312C184.054 109.312 188.539 106.44 190.309 106.549C192.078 106.657 194.405 104.007 194.405 104.007C196.124 99.642 198.017 101.619 198.017 101.619C198.017 101.826 197.836 101.919 197.932 102.265C199.257 106.912 207.335 122.197 207.482 122.464L208.479 146.395L209.475 176.68L210.471 209.749Z" fill="white"/>
<path opacity="0.1" d="M207.145 123.146C205.818 122.594 198.787 114.582 198.787 114.582V112.758C198.531 112.157 197.012 112.524 195.777 112.944L196.307 101.868L196.909 102.367C198.227 107.011 206.992 122.879 207.145 123.146Z" fill="black"/>
<path d="M207.479 122.482C206.149 121.93 199.118 113.918 199.118 113.918V112.094C198.862 111.493 197.343 111.86 196.109 112.28L196.641 101.204L197.243 101.703C198.564 106.347 207.332 122.218 207.479 122.482Z" fill="white"/>
<path opacity="0.1" d="M187.16 162.44C187.326 162.44 195.741 161.557 195.741 161.557C195.741 161.557 200.837 171.558 200.503 173.991C200.169 176.424 199.564 178.578 197.514 178.197C195.464 177.815 186.483 178.497 186.483 178.497L187.16 162.44Z" fill="black"/>
<path d="M186.826 161.777C186.992 161.777 195.407 160.893 195.407 160.893C195.407 160.893 200.5 170.897 200.169 173.327C199.838 175.758 199.227 177.915 197.18 177.533C195.133 177.152 186.149 177.834 186.149 177.834L186.826 161.777Z" fill="white"/>
<path d="M193.168 157.081C193.168 157.081 200.891 161.224 201.057 162.488C201.222 163.753 197.126 161.936 196.241 161.716C195.659 161.576 195.066 161.484 194.468 161.44L188.566 161.599L193.168 157.081Z" fill="#CF6F80"/>
<path opacity="0.1" d="M204.99 123.663C205.439 123.663 205.803 123.3 205.803 122.852C205.803 122.404 205.439 122.041 204.99 122.041C204.542 122.041 204.178 122.404 204.178 122.852C204.178 123.3 204.542 123.663 204.99 123.663Z" fill="black"/>
<path d="M204.99 123.333C205.439 123.333 205.803 122.97 205.803 122.522C205.803 122.074 205.439 121.71 204.99 121.71C204.542 121.71 204.178 122.074 204.178 122.522C204.178 122.97 204.542 123.333 204.99 123.333Z" fill="#3F3D56"/>
<path opacity="0.1" d="M206.486 158.775C206.935 158.775 207.299 158.412 207.299 157.964C207.299 157.516 206.935 157.153 206.486 157.153C206.037 157.153 205.674 157.516 205.674 157.964C205.674 158.412 206.037 158.775 206.486 158.775Z" fill="black"/>
<path d="M206.486 158.442C206.935 158.442 207.299 158.079 207.299 157.631C207.299 157.183 206.935 156.82 206.486 156.82C206.037 156.82 205.674 157.183 205.674 157.631C205.674 158.079 206.037 158.442 206.486 158.442Z" fill="#3F3D56"/>
<path opacity="0.1" d="M205.8 141.219C206.249 141.219 206.613 140.856 206.613 140.408C206.613 139.96 206.249 139.597 205.8 139.597C205.351 139.597 204.987 139.96 204.987 140.408C204.987 140.856 205.351 141.219 205.8 141.219Z" fill="black"/>
<path d="M205.8 140.889C206.249 140.889 206.613 140.526 206.613 140.078C206.613 139.63 206.249 139.267 205.8 139.267C205.351 139.267 204.987 139.63 204.987 140.078C204.987 140.526 205.351 140.889 205.8 140.889Z" fill="#3F3D56"/>
<path d="M224.533 161.272C224.533 161.272 225.087 162.101 224.533 162.488C223.979 162.876 224.587 163.813 224.587 163.813C224.587 163.813 223.206 164.621 223.814 165.348C224.422 166.075 224.036 169.359 224.036 169.359L222.375 172.105C222.375 172.105 222.474 173.874 222.48 176.265C222.48 179.996 222.261 185.242 221.045 187.633L221.213 207.253C221.213 207.253 215.395 209.374 210.525 208.728L209.803 177.245C209.803 177.245 210.856 159.391 211.245 155.966C211.472 154.188 211.565 152.396 211.522 150.604C211.522 150.604 211.356 145.245 210.799 142.757C210.799 142.757 210.197 131.981 210.137 128.998C210.11 127.571 210.185 123.408 210.27 119.448C210.363 115.119 210.468 111.037 210.468 111.037L209.37 102.361C209.37 102.361 210.468 102.249 210.799 102.691C210.948 102.829 211.109 102.953 211.281 103.061V103.061C213.177 104.34 219.877 108.276 219.877 108.276C219.877 108.276 223.585 109.748 224.473 111.857C225.361 113.966 225.978 115.462 226.408 116.062C226.838 116.663 227.073 119.487 227.073 119.487C227.073 119.487 228.349 124.684 229.346 125.565C230.342 126.445 231.07 132.044 231.07 132.044L222.267 138.954C222.267 138.954 221.493 150.448 221.328 150.892C221.162 151.337 224.533 161.272 224.533 161.272Z" fill="white"/>
<path d="M224.867 161.272C224.867 161.272 225.418 162.101 224.867 162.489C224.316 162.876 224.918 163.813 224.918 163.813C224.918 163.813 223.546 164.63 224.148 165.357C224.75 166.084 224.37 169.368 224.37 169.368L222.709 172.114C222.709 172.114 222.808 173.883 222.817 176.275C222.817 180.006 222.598 185.251 221.382 187.642L221.547 207.262C221.547 207.262 215.72 209.383 210.856 208.737L210.137 177.254C210.137 177.254 211.191 159.4 211.579 155.976C211.806 154.198 211.898 152.405 211.853 150.613C211.853 150.613 211.687 145.254 211.133 142.766C211.133 142.766 210.531 131.991 210.468 129.007C210.441 127.581 210.519 123.417 210.601 119.457C210.694 115.128 210.799 111.046 210.799 111.046L209.349 102.253C209.349 102.253 210.799 102.253 211.133 102.7C211.28 102.84 211.442 102.964 211.615 103.07C213.511 104.35 220.214 108.285 220.214 108.285C220.214 108.285 223.919 109.757 224.807 111.866C225.695 113.975 226.312 115.471 226.745 116.072C227.178 116.673 227.407 119.496 227.407 119.496C227.407 119.496 228.683 124.694 229.68 125.574C230.676 126.454 231.395 132.042 231.395 132.042L222.592 138.951C222.592 138.951 221.818 150.445 221.65 150.89C221.481 151.334 224.867 161.272 224.867 161.272Z" fill="white"/>
<path opacity="0.1" d="M214.324 113.596L215.118 115.909L210.935 120.115C211.028 115.789 211.133 111.703 211.133 111.703L209.683 102.91C209.683 102.91 211.133 102.91 211.467 103.358C211.614 103.498 211.775 103.62 211.949 103.725L215.507 113.969L214.324 113.596Z" fill="black"/>
<path d="M213.99 112.932L214.787 115.245L210.604 119.451C210.697 115.122 210.802 111.04 210.802 111.04L209.349 102.247C209.349 102.247 210.802 102.247 211.133 102.694C211.281 102.833 211.442 102.957 211.615 103.064L215.175 113.305L213.99 112.932Z" fill="white"/>
<path opacity="0.1" d="M213.99 90.0438C213.992 91.1263 213.821 92.2023 213.484 93.2311C213.427 93.24 213.369 93.2374 213.313 93.2235C213.257 93.2095 213.205 93.1846 213.159 93.15C213.081 90.4463 211.747 87.9078 210.107 85.7479C209.647 85.0957 209.088 84.5182 208.452 84.0355C207.808 83.5531 207.008 83.3271 206.206 83.4016C205.303 83.5248 204.506 84.1376 203.594 84.2157C202.39 84.3149 201.312 83.4827 200.118 83.4407C199.632 83.4453 199.153 83.5532 198.712 83.7573C198.271 83.9615 197.879 84.257 197.562 84.6243C196.935 85.3655 196.468 86.229 196.193 87.1598C195.72 88.5713 195.462 90.0458 195.428 91.5338C195.413 92.375 195.332 93.4294 194.549 93.7358C194.608 93.1172 194.538 92.4931 194.343 91.9031C194.147 91.3131 193.831 90.7699 193.415 90.3081L193.397 90.2901C193.397 90.206 193.397 90.1279 193.397 90.0438C193.373 88.6792 193.622 87.3236 194.129 86.0561C194.637 84.7886 195.391 83.6345 196.35 82.6613C197.308 81.688 198.452 80.915 199.713 80.3873C200.974 79.8596 202.327 79.5879 203.695 79.5879C205.062 79.5879 206.416 79.8596 207.677 80.3873C208.938 80.915 210.081 81.688 211.04 82.6613C211.998 83.6345 212.753 84.7886 213.26 86.0561C213.767 87.3236 214.016 88.6792 213.993 90.0438H213.99Z" fill="black"/>
<path d="M207.958 73.7224C206.394 72.9881 204.615 72.8492 202.956 73.3319C202.122 73.5782 201.336 73.9777 200.491 74.179C198.685 74.6146 196.578 74.143 195.028 75.1974C194.167 75.7982 193.649 76.7476 193.168 77.6698L191.964 79.959C191.308 81.2117 190.646 82.4854 190.372 83.8643C190.098 85.2432 190.263 86.7874 191.139 87.8959C191.777 88.704 192.719 89.2117 193.412 89.9717C193.826 90.434 194.141 90.9769 194.336 91.5662C194.53 92.1555 194.601 92.7786 194.543 93.3965C195.329 93.096 195.404 92.0386 195.422 91.1974C195.456 89.7094 195.714 88.2349 196.187 86.8234C196.461 85.8923 196.928 85.0287 197.556 84.2879C197.874 83.9209 198.266 83.6256 198.706 83.4215C199.147 83.2174 199.626 83.1093 200.112 83.1043C201.315 83.1464 202.396 83.9755 203.588 83.8764C204.491 83.8013 205.291 83.1854 206.2 83.0652C207.002 82.9895 207.803 83.2156 208.446 83.6991C209.082 84.181 209.639 84.7587 210.098 85.4115C211.741 87.5714 213.075 90.1039 213.153 92.8137C213.493 93.063 213.984 92.7385 214.152 92.354C214.321 91.9695 214.327 91.5189 214.54 91.1524C214.787 90.7288 215.26 90.5035 215.63 90.185C216.569 89.3769 216.804 88.0161 216.768 86.7814C216.732 85.5467 216.491 84.2939 216.726 83.0803C216.867 82.3352 217.186 81.6383 217.361 80.9023C217.535 80.1663 217.556 79.3401 217.144 78.7062C216.542 77.775 215.275 77.5917 214.17 77.5046C212.915 77.3964 211.792 77.5346 210.992 76.4802C210.616 75.9299 210.193 75.4133 209.728 74.9361C209.568 74.7798 207.958 73.7885 207.958 73.7224Z" fill="#512E4E"/>
<path opacity="0.1" d="M175.245 137.073L172.1 131.269L171.103 140.225C171.103 140.225 171.657 144.202 171.546 144.812C171.434 145.422 173.815 150.889 173.815 150.889C173.815 150.889 181.68 164.871 184.891 165.592L195.741 157.853L192.864 154.206C192.864 154.206 191.868 153.818 191.618 154.206C191.618 154.206 186.276 145.031 185.722 144.367C185.168 143.703 185.276 142.379 185.276 142.379C185.276 142.379 184.446 141.495 184.723 140.666C184.999 139.837 183.118 136.962 183.118 136.962L184.834 135.361L175.245 137.073Z" fill="black"/>
<path d="M172.265 130.609L171.434 131.27L170.438 140.225C170.438 140.225 170.992 144.202 170.88 144.812C170.769 145.422 173.153 150.89 173.153 150.89C173.153 150.89 181.014 164.871 184.226 165.592L195.079 157.853L192.199 154.206C192.199 154.206 191.203 153.819 190.953 154.206C190.953 154.206 185.61 145.031 185.057 144.368C184.503 143.704 184.614 142.379 184.614 142.379C184.614 142.379 183.783 141.496 184.06 140.666C184.337 139.837 182.453 136.962 182.453 136.962L184.169 135.361L172.265 130.609Z" fill="white"/>
<path opacity="0.1" d="M223.814 165.691C224.416 166.421 224.036 169.698 224.036 169.698L222.375 172.444C222.375 172.444 222.474 174.217 222.48 176.605L219.687 177.476C219.435 177.555 219.167 177.572 218.907 177.526C218.646 177.481 218.4 177.374 218.19 177.214C217.979 177.055 217.81 176.847 217.696 176.609C217.582 176.371 217.527 176.109 217.535 175.845L218.017 160.34L224.533 162.828C223.979 163.212 224.587 164.156 224.587 164.156C224.587 164.156 223.206 164.961 223.814 165.691Z" fill="black"/>
<path d="M224.148 165.357C224.75 166.087 224.37 169.368 224.37 169.368L222.709 172.114C222.709 172.114 222.808 173.883 222.817 176.274L219.973 177.161C219.726 177.237 219.464 177.254 219.209 177.209C218.954 177.164 218.713 177.059 218.507 176.903C218.301 176.747 218.136 176.543 218.024 176.31C217.913 176.077 217.858 175.821 217.866 175.562L218.351 160.01L224.87 162.497C224.313 162.882 224.921 163.822 224.921 163.822C224.921 163.822 223.546 164.63 224.148 165.357Z" fill="white"/>
<path d="M226.306 157.967C226.306 157.967 225.863 160.788 224.756 160.953C223.648 161.119 223.151 165.517 222.047 165.36C220.942 165.204 221.674 161.272 221.713 160.509C221.752 159.746 220.509 156.585 221.439 155.867C222.369 155.149 225.312 155.867 225.312 155.867L226.306 157.967Z" fill="#CF6F80"/>
<path opacity="0.1" d="M228.662 136.244L230.751 132.038C230.751 132.038 231.582 135.244 231.582 136.956C231.582 138.669 232.744 138.837 232.744 138.837C232.744 138.837 234.017 140.339 233.346 141.432C232.674 142.526 232.403 145.248 232.403 145.248C232.403 145.248 232.623 150.442 231.627 151.16C230.631 151.878 230.423 153.593 230.423 153.593C230.423 153.593 228.593 156.853 228.65 157.628C228.707 158.403 226.104 163.651 226.104 163.651C226.104 163.651 227.377 157.129 219.958 154.311C219.958 154.311 219.901 152.097 220.455 151.49C221.008 150.883 221.872 150.607 221.331 147.54C220.789 144.473 221.174 140.808 221.174 140.072C221.174 139.335 222.835 134.745 222.835 134.745L228.662 136.244Z" fill="black"/>
<path d="M229.565 131.438L231.389 132.038C231.389 132.038 232.223 135.244 232.223 136.956C232.223 138.669 233.385 138.837 233.385 138.837C233.385 138.837 234.658 140.339 233.987 141.432C233.315 142.526 233.048 145.248 233.048 145.248C233.048 145.248 233.267 150.442 232.271 151.16C231.275 151.878 231.052 153.593 231.052 153.593C231.052 153.593 229.225 156.853 229.282 157.628C229.34 158.403 226.733 163.651 226.733 163.651C226.733 163.651 228.009 157.129 220.587 154.311C220.587 154.311 220.533 152.097 221.087 151.49C221.641 150.883 222.504 150.607 221.963 147.54C221.421 144.473 221.806 140.808 221.806 140.071C221.806 139.335 223.467 134.745 223.467 134.745L229.565 131.438Z" fill="white"/>
<path opacity="0.1" d="M189.279 240.449C189.279 240.449 192.187 238.625 194.095 239.95C196.003 241.275 189.279 240.449 189.279 240.449Z" fill="black"/>
<path opacity="0.1" d="M211.871 234.81C211.871 234.81 214.444 234.479 216.605 236.802C218.766 239.124 211.871 234.81 211.871 234.81Z" fill="black"/>
<g opacity="0.1">
<path opacity="0.1" d="M215.636 89.5271C215.266 89.8455 214.79 90.0738 214.543 90.4974C214.333 90.8609 214.327 91.3085 214.158 91.6991C213.99 92.0896 213.499 92.408 213.159 92.1617C213.081 89.458 211.744 86.9195 210.104 84.7565C209.645 84.1037 209.088 83.5261 208.452 83.0442C207.808 82.5608 207.006 82.3347 206.203 82.4103C205.3 82.5335 204.506 83.1463 203.594 83.2214C202.39 83.3235 201.309 82.4914 200.115 82.4493C199.629 82.4542 199.15 82.5625 198.71 82.7672C198.27 82.9718 197.878 83.2681 197.562 83.636C196.934 84.3757 196.468 85.2383 196.193 86.1685C195.72 87.58 195.462 89.0545 195.428 90.5425C195.41 91.3806 195.332 92.4261 194.556 92.7385C194.574 92.9604 194.574 93.1835 194.556 93.4054C195.338 93.105 195.416 92.0475 195.434 91.2064C195.468 89.7184 195.726 88.2438 196.199 86.8324C196.474 85.9013 196.94 85.0377 197.568 84.2969C197.885 83.93 198.277 83.6346 198.717 83.4305C199.157 83.2264 199.635 83.1183 200.121 83.1133C201.325 83.1553 202.408 83.9844 203.6 83.8853C204.503 83.8102 205.303 83.1944 206.209 83.0742C207.012 82.9986 207.814 83.2247 208.458 83.7081C209.094 84.19 209.651 84.7677 210.11 85.4204C211.75 87.5804 213.087 90.1129 213.165 92.8226C213.505 93.072 213.996 92.7475 214.164 92.363C214.333 91.9784 214.339 91.5278 214.55 91.1613C214.796 90.7377 215.272 90.5124 215.642 90.194C216.581 89.3859 216.816 88.025 216.78 86.7903C216.78 86.7513 216.78 86.7122 216.78 86.6762C216.723 87.7456 216.437 88.8361 215.636 89.5271Z" fill="black"/>
<path opacity="0.1" d="M193.418 89.3137C192.726 88.5537 191.78 88.046 191.145 87.2409C190.611 86.5282 190.305 85.6702 190.27 84.7805C190.175 85.8923 190.486 87.0008 191.145 87.9018C191.78 88.7099 192.726 89.2176 193.418 89.9777C194.082 90.7211 194.481 91.6635 194.552 92.6573C194.599 92.0525 194.522 91.4446 194.327 90.87C194.132 90.2955 193.823 89.7661 193.418 89.3137V89.3137Z" fill="black"/>
<path opacity="0.1" d="M217.367 80.2442C217.189 80.9802 216.873 81.6802 216.729 82.4222C216.643 82.9181 216.612 83.4217 216.635 83.9243C216.645 83.638 216.677 83.3528 216.729 83.0711C216.873 82.3261 217.189 81.6291 217.367 80.8931C217.47 80.4872 217.504 80.0666 217.466 79.6494C217.447 79.8498 217.414 80.0486 217.367 80.2442V80.2442Z" fill="black"/>
</g>
<path opacity="0.1" d="M135.049 252.663C151.246 252.663 164.376 250.559 164.376 247.962C164.376 245.365 151.246 243.26 135.049 243.26C118.852 243.26 105.722 245.365 105.722 247.962C105.722 250.559 118.852 252.663 135.049 252.663Z" fill="#587EEC"/>
<path d="M135.994 157.898H134.107V200.308H135.994V157.898Z" fill="#535461"/>
<path d="M147.853 200.178L147.735 202.089L147.567 204.793L147.497 205.916L147.332 208.62L147.26 209.744L147.091 212.447L145.189 243.11C145.106 244.43 144.523 245.668 143.558 246.573C142.593 247.479 141.318 247.983 139.994 247.983H130.104C128.78 247.983 127.506 247.478 126.541 246.573C125.577 245.668 124.994 244.429 124.912 243.11L123.019 212.426L122.85 209.723L122.781 208.599L122.613 205.895L122.543 204.772L122.375 202.068L122.254 200.157C122.234 199.79 122.288 199.422 122.415 199.076C122.542 198.73 122.738 198.413 122.991 198.146C123.245 197.878 123.551 197.665 123.89 197.52C124.229 197.375 124.594 197.3 124.963 197.3H145.192C145.56 197.304 145.923 197.382 146.259 197.531C146.595 197.679 146.897 197.895 147.146 198.165C147.396 198.434 147.587 198.752 147.708 199.099C147.83 199.445 147.879 199.812 147.853 200.178V200.178Z" fill="#3F3D56"/>
<path d="M147.735 202.089L147.567 204.784H122.531L122.363 202.089H147.735Z" fill="#9D9CB5"/>
<path d="M147.498 205.907L147.332 208.605H122.769L122.601 205.907H147.498Z" fill="#9D9CB5"/>
<path d="M147.26 209.731L147.094 212.426H123.007L122.838 209.731H147.26Z" fill="#9D9CB5"/>
<path d="M119.482 173.793C130.471 181.73 135.058 194.143 135.058 194.143C135.058 194.143 121.815 193.689 110.823 185.752C99.8315 177.815 95.2537 165.405 95.2537 165.405C95.2537 165.405 108.491 165.856 119.482 173.793Z" fill="#587EEC"/>
<path d="M95.2447 165.405C95.2447 165.405 108.993 173.021 113.403 179.327C117.812 185.632 135.058 194.143 135.058 194.143" stroke="#535461" stroke-width="2" stroke-miterlimit="10"/>
<path d="M126.576 157.805C132.557 162.122 135.058 168.878 135.058 168.878C135.058 168.878 127.85 168.632 121.866 164.315C115.883 159.998 113.388 153.239 113.388 153.239C113.388 153.239 120.593 153.485 126.576 157.805Z" fill="#587EEC"/>
<path d="M113.388 153.239C113.388 153.239 120.87 157.384 123.269 160.815C125.668 164.246 135.058 168.878 135.058 168.878" stroke="#535461" stroke-width="2" stroke-miterlimit="10"/>
<path d="M143.741 168.536C136.87 176.073 135.416 185.924 135.416 185.924C135.416 185.924 145.105 183.55 151.97 176.01C158.835 168.47 160.295 158.622 160.295 158.622C160.295 158.622 150.613 160.998 143.741 168.536Z" fill="#587EEC"/>
<path d="M160.301 158.625C160.301 158.625 151.35 166.352 149.075 171.675C146.799 176.998 135.416 185.924 135.416 185.924" stroke="#535461" stroke-width="2" stroke-miterlimit="10"/>
<path d="M395.979 165.883C395.979 165.883 391.01 141.207 392.912 138.137C392.912 138.137 392.981 135.283 392.867 131.645C392.867 131.507 392.867 131.369 392.867 131.227C393.202 131.45 393.551 131.651 393.911 131.828C395.664 132.727 397.676 132.986 399.6 132.561L398.095 130.888C397.734 130.488 397.358 130.056 397.279 129.527C397.201 128.998 397.418 128.527 397.605 128.055C399.034 124.45 399.109 119.917 396.355 117.165C394.029 114.852 393.463 111.866 390.938 109.754C389.093 108.207 388.079 105.939 387.121 103.746C386.312 101.892 385.496 100.023 385.033 98.0587C384.671 96.5236 384.527 94.9344 384.03 93.4354C383.534 91.9363 382.604 90.4793 381.15 89.8094C380.632 89.5721 380.057 89.4369 379.585 89.1214C378.965 88.7039 378.592 88.0249 378.143 87.4301C375.865 84.426 368.235 86.1954 364.623 87.4151C363.641 87.7222 362.732 88.2251 361.951 88.8931L361.984 88.8391C362.011 88.794 362.044 88.7489 362.074 88.7039C361.679 89.0229 361.337 89.4033 361.063 89.8304C360.536 90.6626 360.316 91.6329 359.877 92.5341C359.347 93.6006 356.401 96.5777 357.668 97.7764C357.756 97.8569 357.858 97.9218 357.969 97.9686C358.444 98.1662 358.968 98.2185 359.474 98.1188L359.419 98.248C358.987 99.3056 358.765 100.437 358.766 101.58C358.766 106.515 362.844 110.517 367.88 110.517C368.826 110.518 369.768 110.373 370.67 110.087C370.691 110.201 370.709 110.316 370.73 110.43C370.73 110.475 370.745 110.52 370.751 110.565L370.592 110.787C370.584 110.774 370.575 110.76 370.565 110.748L365.839 117.339C365.117 117.847 360.957 120.851 360.723 123.104C360.476 125.571 360.229 128.458 360.229 128.458L360.196 129.076C359.989 129.249 359.748 129.374 359.488 129.444C359.228 129.514 358.956 129.527 358.691 129.482C357.216 129.242 357.216 134.889 357.216 134.889C357.216 134.889 356.235 135.791 355.561 135.01C354.887 134.228 353.105 136.875 353.105 136.875L341.939 137.356L341.683 137.371L341.081 135.511C341.016 135.315 340.876 135.152 340.692 135.058C340.508 134.965 340.294 134.947 340.097 135.01C340.05 135.025 340.005 135.044 339.961 135.067L339.919 135.091L339.841 135.145L339.802 135.181C339.78 135.2 339.76 135.221 339.741 135.244L339.705 135.286L339.687 135.304C339.618 135.4 339.572 135.511 339.553 135.628C339.534 135.744 339.543 135.864 339.579 135.977L340.097 137.572C337.942 138.005 335.738 139.224 337.535 142.583L328.428 140.904L331.374 143.373L346.586 146.506C346.384 146.867 346.516 147.39 347.145 148.126C349.854 151.301 354.79 152.163 356.777 152.385C357.301 153.557 357.957 154.665 358.73 155.69L358.559 158.853C358.559 158.853 353.529 182.965 352.608 184.187C353.073 183.661 353.499 183.102 353.881 182.514C352.422 187.468 350.381 194.248 349.845 195.263C348.984 196.886 348.187 203.45 349.168 203.87C349.469 203.999 350.33 203.936 351.558 203.843V204.387L351.504 224.992C351.504 224.992 351.75 237.631 351.073 238.835C350.396 240.04 350.215 242.567 350.215 242.567C350.215 242.567 347.507 247.55 345.361 249.554C345.346 249.57 345.33 249.584 345.313 249.596L345.246 249.128C345.246 249.128 342.667 252.378 336.96 252.195C336.96 252.195 333.526 254.424 338.619 254.544C343.711 254.664 350.215 254.364 350.215 254.364C350.215 254.364 354.757 247.454 358.562 248.356V253.592H359.726V248.271C360.267 247.916 360.729 247.456 361.085 246.917C361.442 246.379 361.685 245.773 361.8 245.138C361.9 244.483 361.827 243.814 361.588 243.196C361.35 242.578 360.954 242.033 360.44 241.614C360.209 241.406 360.023 241.152 359.896 240.869C359.768 240.585 359.7 240.279 359.696 239.968L359.654 240.004C359.654 239.899 359.627 239.791 359.615 239.68C359.281 236.976 358.863 231.397 360.34 227.27C362.366 221.61 362.98 213.727 361.505 209.034C361.029 207.534 360.638 206.009 360.334 204.465C360.298 204.27 360.265 204.084 360.235 203.909C361.243 204.045 362.241 204.246 363.224 204.51C366.64 205.45 374.113 205.625 380.494 205.574C380.509 205.748 380.527 205.931 380.548 206.114C380.662 207.388 380.9 208.648 381.258 209.876C382.059 212.279 382.426 222.874 382.426 222.874C382.426 222.874 383.459 231.586 382.896 235.131C382.595 237.102 382.294 239.082 382.122 241.07V241.11C382.122 241.11 380.431 245.916 379.194 248.527C379.164 248.593 379.13 248.659 379.1 248.722C378.771 248.752 378.446 248.824 378.134 248.935C378.134 248.935 376.476 252.24 374.823 252.787C373.171 253.333 373.719 255.133 377.46 254.472C381.201 253.811 386.851 253.27 386.851 253.27L387.094 249.9L388.244 248.464L387.943 251.825L389.168 251.585L389.006 247.496L390.887 245.147C390.887 245.147 393.159 243.128 389.782 239.157V239.244C389.746 239.187 389.713 239.127 389.674 239.07V239.052C389.114 238.187 388.668 236.573 389.484 233.71C390.959 228.537 391.817 223.842 391.817 223.842C391.817 223.842 395.109 211.263 391.152 205.312H391.326C390.92 204.475 390.634 203.585 390.474 202.669C390.454 202.561 390.436 202.449 390.42 202.335C393.349 202.167 396.223 201.638 398.568 200.497C398.559 200.485 397.147 170.636 395.979 165.883ZM358.799 145.064V145.124L358.197 145.155L358.799 145.064ZM356.735 145.35C356.636 145.372 356.543 145.416 356.464 145.479C356.205 145.844 356.042 146.269 355.991 146.714L355.052 146.503C355.052 146.503 354.393 146.362 353.445 146.203L352.996 145.752C354.23 145.65 355.513 145.5 356.735 145.35V145.35Z" fill="url(#paint1_linear_6_373)"/>
<path d="M387.805 247.538L387.447 251.795L388.647 251.555L388.467 246.938L387.805 247.538Z" fill="#1D2366"/>
<path d="M360.406 227.326C358.959 231.442 359.368 236.997 359.693 239.694C359.814 240.692 359.925 241.299 359.925 241.299C359.925 241.299 357.761 246.219 357.58 246.406C357.4 246.592 351.212 250.362 351.212 250.362L346.887 252.883C346.887 252.883 342.498 250.963 344.602 250.302C345.032 250.13 345.419 249.866 345.737 249.53C347.844 247.532 350.489 242.566 350.489 242.566C350.489 242.566 350.67 240.046 351.332 238.847C351.994 237.649 351.753 225.052 351.753 225.052L351.805 204.519V201.842L360.036 201.902C360.088 202.811 360.207 203.715 360.391 204.606C360.687 206.145 361.07 207.665 361.538 209.16C362.989 213.844 362.387 221.688 360.406 227.326Z" fill="#FFB0B1"/>
<path opacity="0.1" d="M359.925 241.299C359.925 241.299 357.761 246.22 357.58 246.406C357.4 246.592 351.212 250.362 351.212 250.362L346.887 252.883C346.887 252.883 342.498 250.963 344.602 250.302C345.032 250.13 345.419 249.867 345.737 249.53L345.923 250.843L347.365 250.783L359.705 239.701C359.814 240.692 359.925 241.299 359.925 241.299Z" fill="black"/>
<path d="M359.775 239.98L347.365 251.137L345.924 251.197L345.623 249.095C345.623 249.095 343.1 252.333 337.496 252.153C337.496 252.153 334.131 254.373 339.118 254.493C344.106 254.613 350.474 254.313 350.474 254.313C350.474 254.313 354.923 247.403 358.646 248.304V253.523H359.79V248.256C360.321 247.899 360.775 247.438 361.124 246.901C361.472 246.364 361.709 245.762 361.818 245.132C361.917 244.483 361.847 243.819 361.615 243.204C361.382 242.59 360.995 242.045 360.491 241.623C360.266 241.412 360.086 241.158 359.963 240.875C359.84 240.593 359.776 240.288 359.775 239.98V239.98Z" fill="#1D2366"/>
<path d="M388.948 233.743C388.148 236.597 388.584 238.205 389.132 239.067V239.085C389.835 240.149 390.323 241.34 390.571 242.591L390.619 242.861L384.972 251.077L381.908 252.279C381.908 252.279 376.981 250.6 377.881 250.119C378.107 250.002 378.459 249.377 378.863 248.515C380.067 245.916 381.728 241.122 381.728 241.122V241.083C381.902 239.103 382.179 237.129 382.486 235.164C383.037 231.629 382.026 222.95 382.026 222.95C382.026 222.95 381.665 212.396 380.882 209.996C380.529 208.775 380.294 207.524 380.181 206.259C380.018 204.757 379.982 203.519 379.982 203.519C379.982 203.519 383.227 199.013 389.174 203.879C389.65 204.267 390.068 204.721 390.417 205.225C394.525 211.059 391.218 223.911 391.218 223.911C391.218 223.911 390.39 228.585 388.948 233.743Z" fill="#FFB0B1"/>
<path opacity="0.1" d="M390.628 242.861L384.981 251.077L381.918 252.279C381.918 252.279 376.991 250.6 377.89 250.119C378.116 250.002 378.468 249.377 378.872 248.515C380.957 248.497 382.038 250.479 382.038 250.479L384.68 250.059C384.68 250.059 388.166 243.221 388.948 242.804C389.731 242.386 389.069 239.683 389.069 239.683V238.995C389.09 239.019 389.108 239.046 389.132 239.07V239.088C389.835 240.152 390.323 241.343 390.571 242.594L390.628 242.861Z" fill="black"/>
<path d="M382.218 250.657C382.218 250.657 380.714 247.899 377.83 248.917C377.83 248.917 376.208 252.222 374.586 252.757C372.963 253.291 373.505 255.094 377.171 254.436C380.837 253.778 386.363 253.234 386.363 253.234L386.604 249.873L390.33 245.135C390.33 245.135 392.551 243.125 389.246 239.169V239.857C389.246 239.857 389.908 242.561 389.126 242.978C388.343 243.396 384.87 250.236 384.87 250.236L382.218 250.657Z" fill="#1D2366"/>
<path opacity="0.1" d="M360.045 201.897C360.097 202.805 360.216 203.709 360.401 204.6C357.012 204.105 353.866 204.351 351.805 204.513V201.837L360.045 201.897Z" fill="black"/>
<path opacity="0.1" d="M390.751 205.973C390.751 205.973 385.936 206.208 380.193 206.256C380.03 204.754 379.994 203.516 379.994 203.516C379.994 203.516 383.239 199.01 389.186 203.876C389.662 204.265 390.08 204.718 390.429 205.222C390.522 205.478 390.63 205.729 390.751 205.973V205.973Z" fill="black"/>
<path d="M390.751 205.432C390.751 205.432 369.659 206.451 363.23 204.651C356.801 202.852 350.429 204.411 349.469 203.993C348.509 203.576 349.288 197.036 350.131 195.417C350.974 193.797 355.597 177.422 355.597 177.422L360.045 154.272L364.732 152.983L365.063 152.89L373.228 150.643L379.212 148.994C379.212 148.994 391.109 195.356 390.089 198.775C389.719 200.084 389.659 201.461 389.914 202.798C390.07 203.71 390.352 204.597 390.751 205.432V205.432Z" fill="#1D2366"/>
<path d="M344.539 138.44C344.539 138.44 340.325 142.946 343.516 145.458C346.706 147.969 348.804 145.698 348.804 145.698L344.539 138.44Z" fill="#C7DAF5"/>
<path opacity="0.1" d="M344.539 138.44C344.539 138.44 340.325 142.946 343.516 145.458C346.706 147.969 348.804 145.698 348.804 145.698L344.539 138.44Z" fill="black"/>
<path d="M378.583 108.814C378.583 108.814 378.089 109.282 377.346 109.973C376.286 110.962 374.718 112.407 373.328 113.617C371.401 115.29 369.812 116.519 370.381 115.471C370.95 114.422 370.842 112.596 370.559 110.886C370.538 110.772 370.519 110.658 370.498 110.547C370.264 109.292 369.954 108.052 369.568 106.834C369.568 106.834 372.68 102.82 374.402 101.237C375.043 100.636 375.492 100.39 375.519 100.808C375.549 101.369 375.97 102.61 376.494 103.926C376.509 103.968 376.524 104.007 376.542 104.049C376.891 104.95 377.285 105.876 377.632 106.675C378.161 107.9 378.583 108.814 378.583 108.814Z" fill="#FFB0B1"/>
<path opacity="0.1" d="M376.542 104.049C376.25 105.619 375.54 107.082 374.487 108.285C373.435 109.487 372.078 110.386 370.559 110.886C370.319 109.515 369.988 108.161 369.568 106.834C369.568 106.834 375.428 99.2784 375.519 100.807C375.54 101.387 375.997 102.673 376.542 104.049Z" fill="black"/>
<path opacity="0.1" d="M369.975 112.905L370.733 111.839C370.733 111.839 371.236 114.897 373.084 113.548C374.932 112.199 375.022 123.699 375.022 123.699L373.039 153.299L358.706 152.443L359.112 138.14L360.735 130.93L364.747 120.449L367.134 116.985L369.975 112.905Z" fill="black"/>
<path d="M375.022 123.882L373.216 150.646L373.027 153.482L365.036 153.004L364.735 152.986L358.715 152.626L359.121 138.32L360.744 131.11L364.756 120.629L367.142 117.165L369.984 113.07L370.742 112.007C370.742 112.007 371.245 115.065 373.093 113.716L373.132 113.689C374.938 112.548 375.022 123.882 375.022 123.882Z" fill="#1D2366"/>
<path d="M360.945 128.605C360.945 128.605 360.226 130.107 358.781 129.864C357.337 129.62 357.34 135.271 357.34 135.271C357.34 135.271 356.379 136.172 355.717 135.391C355.055 134.61 353.309 137.251 353.309 137.251L342.372 137.731C342.372 137.731 347.239 139.951 346.285 146.669C346.285 146.669 362.808 145.647 363.35 144.088C363.892 142.529 360.945 128.605 360.945 128.605Z" fill="white"/>
<path opacity="0.03" d="M360.945 128.605C360.945 128.605 360.226 130.107 358.781 129.864C357.337 129.62 357.34 135.271 357.34 135.271C357.34 135.271 356.379 136.172 355.717 135.391C355.055 134.61 353.309 137.251 353.309 137.251L342.372 137.731C342.372 137.731 347.239 139.951 346.285 146.669C346.285 146.669 362.808 145.647 363.35 144.088C363.892 142.529 360.945 128.605 360.945 128.605Z" fill="black"/>
<path d="M329.159 141.261L332.042 143.719L355.778 148.696L352.834 145.698L329.159 141.261Z" fill="white"/>
<path d="M370.02 113.851C369.625 114.452 368.497 117.529 367.555 120.214C366.769 122.452 366.113 124.42 366.113 124.42C366.113 124.42 364.581 134.376 363.799 136.175C363.016 137.975 363.44 144.992 363.44 144.992L360.524 162.323C360.524 162.323 359.203 171.26 357.162 176.599C355.148 181.853 352.906 184.316 352.837 184.395C353.74 183.175 358.661 159.16 358.661 159.16L360.286 128.872C360.286 128.872 360.524 125.994 360.765 123.534C361.005 121.073 365.881 117.715 365.881 117.715L370.583 111.043C371.055 111.673 370.739 112.773 370.02 113.851Z" fill="white"/>
<path d="M357.761 152.776C357.761 152.776 350.838 152.476 347.486 148.456C344.133 144.437 355.236 146.852 355.236 146.852L358.122 147.513L357.761 152.776Z" fill="#FFB0B1"/>
<path opacity="0.1" d="M390.089 198.778C389.719 200.087 389.659 201.465 389.915 202.801C382.363 203.335 374.285 201.299 374.285 201.299C372.78 202.681 368.816 204.717 368.816 204.717L366.655 177.981C365.273 174.376 364.732 155.489 364.732 155.489C364.732 155.489 364.855 154.5 365.033 153.019C365.033 152.983 365.033 152.944 365.048 152.908C365.586 148.771 366.655 141.006 367.179 139.957C367.901 138.515 364.957 134.679 364.957 134.679L366.297 123.278L366.459 121.902C369.282 120.644 371.447 116.624 371.447 116.624L373.108 113.719C374.914 112.563 375.007 123.897 375.007 123.897L373.201 150.661L379.185 149.012C379.185 149.012 391.109 195.36 390.089 198.778Z" fill="black"/>
<path d="M397.839 200.626C389.607 204.706 374.646 200.926 374.646 200.926C373.141 202.308 369.177 204.345 369.177 204.345L367.013 177.608C365.635 174.003 365.093 155.116 365.093 155.116C365.093 155.116 366.832 141.024 367.555 139.585C367.765 139.164 367.663 138.54 367.413 137.867C366.185 134.664 365.733 131.216 366.095 127.806L366.673 122.906L366.832 121.533C369.659 120.271 371.823 116.252 371.823 116.252L373.328 113.62L376.097 108.772L377.409 106.476L377.632 106.678L379.332 108.216C379.332 108.216 380.054 108.817 381.138 109.718C383.495 111.701 387.567 115.191 389.668 117.327C391.516 119.208 392.1 126.523 392.268 132.03C392.379 135.656 392.313 138.497 392.313 138.497C390.45 141.559 395.323 166.136 395.323 166.136C396.458 170.885 397.839 200.626 397.839 200.626Z" fill="white"/>
<path opacity="0.03" d="M382.038 116.192C382.038 116.192 376.389 126.926 377.045 131.005C377.701 135.085 379.567 139.702 378.667 140.781C378.358 141.189 377.958 141.521 377.499 141.75C377.04 141.978 376.534 142.098 376.021 142.099C375.118 142.16 372.711 143.839 372.711 144.019C372.711 144.199 370.486 144.199 368.497 145.04C366.507 145.882 363.57 146.359 363.57 146.359C363.57 146.359 357.851 146.179 357.319 146.72C356.786 147.261 356.238 150.496 357.379 153.077C358.519 155.657 359.787 157.583 360.744 157.934C361.701 158.286 367.775 156.255 372.702 155.774C377.629 155.294 382.977 151.397 382.977 151.397C382.977 151.397 388.867 149.294 389.899 145.758C390.932 142.223 388.638 122.789 388.638 122.789C388.638 122.789 386.905 113.731 382.038 116.192Z" fill="black"/>
<path opacity="0.03" d="M381.316 115.291C381.316 115.291 375.666 126.027 376.328 130.104C376.991 134.181 378.851 138.801 377.948 139.882C377.64 140.291 377.24 140.623 376.782 140.852C376.323 141.081 375.818 141.201 375.305 141.201C374.402 141.261 371.994 142.941 371.994 143.121C371.994 143.301 369.77 143.301 367.781 144.139C365.791 144.977 362.854 145.458 362.854 145.458C362.854 145.458 357.135 145.278 356.605 145.819C356.076 146.359 355.522 149.598 356.665 152.175C357.809 154.753 359.073 156.682 360.03 157.033C360.987 157.384 367.061 155.354 371.988 154.876C376.915 154.398 382.264 150.496 382.264 150.496C382.264 150.496 388.151 148.393 389.171 144.86C390.191 141.327 387.91 121.888 387.91 121.888C387.91 121.888 386.182 112.833 381.316 115.291Z" fill="black"/>
<path d="M381.86 115.651C381.86 115.651 376.211 126.388 376.873 130.464C377.535 134.541 379.395 139.161 378.495 140.24C378.187 140.65 377.788 140.983 377.329 141.212C376.87 141.442 376.363 141.561 375.85 141.562C374.947 141.622 372.539 143.301 372.539 143.478C372.539 143.656 370.318 143.659 368.325 144.5C366.333 145.341 363.398 145.818 363.398 145.818C363.398 145.818 357.68 145.638 357.147 146.179C356.614 146.72 356.066 149.958 357.207 152.536C358.348 155.113 359.615 157.042 360.572 157.393C361.529 157.745 367.603 155.714 372.53 155.233C377.457 154.753 382.805 150.856 382.805 150.856C382.805 150.856 388.696 148.754 389.728 145.218C390.76 141.682 388.482 122.248 388.482 122.248C388.482 122.248 386.724 113.206 381.86 115.651Z" fill="white"/>
<path opacity="0.1" d="M381.737 144.449C381.737 144.449 377.222 143.547 378.793 145.049C380.364 146.551 380.355 147.867 382.279 147.807C384.202 147.747 381.737 144.449 381.737 144.449Z" fill="black"/>
<path opacity="0.1" d="M389.367 176.767C389.367 176.767 387.326 178.146 391.23 181.324C395.133 184.503 389.367 176.767 389.367 176.767Z" fill="black"/>
<path opacity="0.1" d="M385.472 188.102C385.472 188.282 384.75 194.711 387.452 196.318C390.155 197.925 385.472 188.102 385.472 188.102Z" fill="black"/>
<path d="M342.559 137.716C340.379 137.791 335.672 138.455 338.113 143.001C340.271 147.023 343.898 144.334 345.938 142.295C345.441 140.393 344.231 138.754 342.559 137.716V137.716Z" fill="#FFB0B1"/>
<path d="M345.966 142.259L346.056 142.166L345.966 142.259Z" fill="#FFB0B1"/>
<path opacity="0.1" d="M381.138 109.901C378.826 111.478 376.888 112.809 376.509 113.085C375.474 113.851 373.499 118.349 372.226 120.644C371.212 122.491 367.916 122.966 366.673 123.083L366.833 121.71C369.659 120.448 371.823 116.429 371.823 116.429L377.409 106.653L379.332 108.399C379.332 108.399 380.054 109 381.138 109.901Z" fill="black"/>
<path d="M381.138 109.721C378.826 111.298 376.888 112.629 376.509 112.908C375.474 113.671 373.499 118.168 372.226 120.464C371.212 122.311 367.916 122.786 366.673 122.903L366.833 121.53C369.659 120.268 371.823 116.249 371.823 116.249L377.409 106.473L379.332 108.213C379.332 108.213 380.054 108.807 381.138 109.721Z" fill="#DCE7FF"/>
<path d="M376.69 102.066C376.691 103.87 376.143 105.631 375.118 107.116C373.909 108.873 372.108 110.138 370.043 110.682C367.979 111.227 365.787 111.015 363.866 110.084C361.945 109.154 360.421 107.567 359.572 105.611C358.723 103.656 358.604 101.461 359.237 99.4254C359.87 97.3899 361.214 95.6484 363.023 94.5168C364.833 93.3853 366.989 92.9388 369.101 93.2583C371.212 93.5778 373.139 94.6421 374.531 96.2581C375.923 97.8742 376.689 99.9349 376.69 102.066V102.066Z" fill="#FFB0B1"/>
<path opacity="0.1" d="M392.268 132.032C391.046 131.282 390.05 130.215 389.388 128.944C388.885 127.953 388.551 126.808 387.693 126.105C386.92 125.474 385.887 125.321 384.924 125.039C381.758 124.105 379.103 121.221 379.004 117.928C378.956 116.378 379.44 114.831 379.221 113.296C379.096 112.427 378.75 111.605 378.215 110.907C377.95 110.574 377.659 110.262 377.346 109.973C376.924 109.577 376.482 109.192 376.097 108.771C375.854 108.511 375.642 108.224 375.464 107.915C375.321 107.663 375.205 107.396 375.118 107.119C374.516 105.281 375.064 103.1 374.402 101.24L374.366 101.138C374.116 100.477 373.607 99.8161 372.9 99.7651C372.193 99.714 371.588 100.3 370.914 100.561C369.502 101.108 367.979 100.177 366.802 99.2273C365.625 98.278 364.298 97.1935 362.802 97.4038C361.812 97.545 361.03 98.2179 360.118 98.5664C359.912 98.646 359.699 98.7073 359.483 98.7497C360.254 96.8286 361.672 95.2357 363.493 94.2447C365.313 93.2537 367.423 92.9266 369.459 93.3193C371.495 93.7121 373.33 94.8004 374.65 96.3971C375.969 97.9939 376.691 99.9994 376.689 102.069C376.69 102.694 376.625 103.318 376.494 103.929C376.509 103.971 376.524 104.01 376.542 104.052C376.891 104.953 377.285 105.878 377.632 106.678L379.332 108.216C379.332 108.216 380.054 108.817 381.138 109.718C383.495 111.7 387.567 115.191 389.668 117.327C391.516 119.214 392.094 126.526 392.268 132.032Z" fill="black"/>
<path d="M360.012 93.0779C360.443 92.2037 360.656 91.2243 361.171 90.3952C361.927 89.1935 363.245 88.4245 364.599 87.9588C368.136 86.7422 375.609 84.9757 377.842 87.9588C378.282 88.5597 378.646 89.2266 379.254 89.6412C379.717 89.9566 380.277 90.0918 380.786 90.3291C382.209 90.996 383.118 92.45 383.603 93.9341C384.088 95.4181 384.232 97.0103 384.587 98.5394C385.042 100.501 385.839 102.361 386.634 104.208C387.57 106.389 388.563 108.651 390.369 110.192C392.834 112.295 393.379 115.272 395.666 117.58C398.375 120.319 398.288 124.841 396.891 128.431C396.708 128.902 396.5 129.395 396.572 129.897C396.644 130.398 397.018 130.855 397.37 131.254L398.851 132.922C395.347 133.766 391.383 131.939 389.752 128.734C389.249 127.743 388.915 126.601 388.054 125.895C387.284 125.264 386.249 125.114 385.288 124.832C382.122 123.894 379.468 121.007 379.368 117.715C379.32 116.168 379.805 114.621 379.585 113.088C379.463 112.214 379.115 111.386 378.577 110.685C377.749 109.607 376.5 108.883 375.826 107.681C374.685 105.671 375.552 103.061 374.73 100.904C374.477 100.243 373.972 99.5818 373.264 99.5308C372.557 99.4797 371.952 100.066 371.275 100.327C369.866 100.874 368.343 99.9453 367.167 98.993C365.99 98.0407 364.662 96.9592 363.164 97.1725C362.173 97.3107 361.394 97.9836 360.482 98.3351C359.808 98.5935 358.441 98.8248 357.851 98.257C356.605 97.1124 359.492 94.1474 360.012 93.0779Z" fill="#591D4B"/>
<path opacity="0.1" d="M390.589 127.743C390.083 126.751 389.752 125.61 388.891 124.907C388.121 124.276 387.085 124.123 386.122 123.84C382.959 122.906 380.304 120.019 380.202 116.727C380.154 115.179 380.638 113.629 380.422 112.097C380.296 111.228 379.948 110.406 379.413 109.709C378.583 108.63 377.334 107.906 376.662 106.705C375.522 104.698 376.389 102.087 375.564 99.9274C375.314 99.2695 374.805 98.6086 374.101 98.5545C373.397 98.5004 372.786 99.0923 372.112 99.3536C370.703 99.9004 369.177 98.9691 368.003 98.0198C366.829 97.0705 365.496 95.986 364 96.1963C363.01 96.3375 362.228 97.0104 361.319 97.3589C360.644 97.6172 359.275 97.8515 358.685 97.2838C357.445 96.0821 360.331 93.123 360.849 92.0596C361.279 91.1824 361.493 90.206 362.011 89.3769C362.038 89.3318 362.068 89.2868 362.098 89.2417C361.711 89.5619 361.377 89.9411 361.108 90.3652C360.593 91.1944 360.379 92.1677 359.949 93.0479C359.428 94.1114 356.542 97.0795 357.785 98.2721C358.387 98.8429 359.741 98.6086 360.416 98.3502C361.319 97.9987 362.107 97.3258 363.097 97.1876C364.602 96.9743 365.927 98.0588 367.1 99.0081C368.274 99.9574 369.809 100.889 371.212 100.342C371.886 100.081 372.476 99.4918 373.198 99.5459C373.92 99.5999 374.402 100.258 374.664 100.919C375.486 103.076 374.619 105.686 375.759 107.696C376.434 108.877 377.683 109.616 378.51 110.7C379.049 111.401 379.396 112.229 379.519 113.104C379.738 114.636 379.254 116.183 379.302 117.73C379.401 121.034 382.056 123.909 385.222 124.847C386.176 125.129 387.218 125.279 387.988 125.91C388.852 126.616 389.192 127.758 389.686 128.749C391.317 131.954 395.281 133.781 398.784 132.937L398.086 132.15C395.049 132.195 391.976 130.47 390.589 127.743Z" fill="black"/>
<path opacity="0.1" d="M369.839 114.032C369.445 114.633 368.316 117.709 367.374 120.395C366.492 120.052 365.692 117.868 365.692 117.868L370.393 111.193C370.875 111.854 370.559 112.95 369.839 114.032Z" fill="black"/>
<path d="M370.02 113.851C369.626 114.452 368.497 117.528 367.555 120.214C366.673 119.875 365.872 117.688 365.872 117.688L370.574 111.016C371.055 111.673 370.739 112.773 370.02 113.851Z" fill="#DCE7FF"/>
<path d="M342.685 144.542L340.078 136.337C340.048 136.241 340.036 136.14 340.044 136.04C340.053 135.939 340.081 135.841 340.128 135.752C340.174 135.662 340.238 135.582 340.315 135.518C340.392 135.453 340.482 135.403 340.578 135.373V135.373C340.772 135.313 340.982 135.331 341.162 135.425C341.343 135.518 341.479 135.679 341.541 135.872L344.148 144.067L343.889 145.782L342.685 144.542Z" fill="#BE8B87"/>
<path opacity="0.1" d="M340.325 135.616C340.52 135.555 340.731 135.573 340.912 135.667C341.093 135.76 341.229 135.921 341.292 136.115L343.898 144.31L343.702 145.596L343.892 145.795L344.151 144.079L341.529 135.884C341.467 135.691 341.331 135.53 341.151 135.437C340.97 135.343 340.76 135.325 340.566 135.385V135.385C340.403 135.438 340.262 135.544 340.166 135.686C340.217 135.658 340.27 135.635 340.325 135.616V135.616Z" fill="white"/>
<path d="M342.685 144.542L344.148 144.079L343.934 145.485L343.889 145.795L343.462 145.35L342.685 144.542Z" fill="#EFC8C4"/>
<path d="M343.462 145.35C343.487 145.318 343.519 145.291 343.555 145.272C343.576 145.258 343.601 145.251 343.626 145.251C343.651 145.251 343.675 145.258 343.696 145.272C343.717 145.296 343.734 145.324 343.748 145.353C343.767 145.386 343.794 145.414 343.827 145.436C343.859 145.457 343.896 145.471 343.934 145.476L343.889 145.776L343.462 145.35Z" fill="#727A9C"/>
<path d="M340.063 139.251C340.063 139.251 345.291 139.221 344.06 141.441C342.829 143.662 340.906 143.929 340.906 143.929L340.063 139.251Z" fill="#FFB0B1"/>
<path d="M307.549 39.6193H307.323C298.342 39.6193 290.399 44.3628 285.83 51.3624C281.261 44.3628 273.319 39.6193 264.337 39.6193H264.112C257.371 39.6834 250.929 42.3999 246.184 47.1785C241.439 51.9571 238.776 58.4116 238.772 65.1394C238.772 73.4939 242.438 85.3482 249.586 95.1026C263.206 113.689 285.83 129.951 285.83 129.951C285.83 129.951 308.455 113.692 322.071 95.1026C329.222 85.3482 332.885 73.4939 332.885 65.1394C332.881 58.4121 330.218 51.958 325.474 47.1795C320.73 42.401 314.288 39.6842 307.549 39.6193V39.6193ZM304.319 96.5326C303.296 96.5287 302.299 96.2162 301.457 95.6361C300.615 95.056 299.969 94.2354 299.603 93.2821H294.233C293.88 93.2799 293.536 93.1675 293.249 92.9607C292.963 92.7539 292.748 92.463 292.635 92.1285L290.986 87.1687L285.767 105.371C285.665 105.721 285.453 106.029 285.161 106.249C284.869 106.468 284.513 106.587 284.148 106.587H284.042C283.661 106.569 283.298 106.421 283.013 106.167C282.728 105.913 282.539 105.57 282.477 105.193L277.099 72.9051L273.168 92.0113C273.078 92.3743 272.869 92.6967 272.573 92.927C272.278 93.1573 271.914 93.2823 271.54 93.2821H263.976C263.749 93.2917 263.523 93.2554 263.311 93.1754C263.098 93.0954 262.905 92.9733 262.741 92.8166C262.577 92.6598 262.447 92.4716 262.357 92.2633C262.268 92.055 262.223 91.8308 262.223 91.6043C262.223 91.3778 262.268 91.1536 262.357 90.9453C262.447 90.7369 262.577 90.5487 262.741 90.392C262.905 90.2352 263.098 90.1132 263.311 90.0332C263.523 89.9532 263.749 89.9169 263.976 89.9265H270.215L275.784 64.2381C275.875 63.8583 276.096 63.522 276.408 63.2867C276.72 63.0514 277.105 62.9316 277.496 62.9479C277.887 62.9642 278.26 63.1156 278.552 63.3762C278.843 63.6367 279.035 63.9902 279.094 64.3763L284.587 97.3136L289.264 81.0282C289.362 80.6852 289.568 80.3829 289.851 80.1663C290.135 79.9497 290.481 79.8306 290.838 79.8266H290.872C291.225 79.8267 291.57 79.9383 291.856 80.1454C292.143 80.3526 292.356 80.6447 292.467 80.9802L295.449 89.9355H299.537C299.827 89.0543 300.356 88.2703 301.065 87.6702C301.774 87.07 302.635 86.677 303.553 86.5345C304.472 86.392 305.412 86.5055 306.27 86.8626C307.128 87.2197 307.87 87.8064 308.415 88.558C308.96 89.3095 309.286 90.1968 309.358 91.1218C309.429 92.0467 309.243 92.9735 308.821 93.7997C308.398 94.6259 307.755 95.3195 306.962 95.8039C306.169 96.2882 305.258 96.5446 304.328 96.5446L304.319 96.5326Z" fill="#EC5863"/>
</g>
<defs>
<linearGradient id="paint0_linear_6_373" x1="202.348" y1="256.953" x2="202.348" y2="72.0969" gradientUnits="userSpaceOnUse">
<stop stop-color="#808080" stop-opacity="0.25"/>
<stop offset="0.54" stop-color="#808080" stop-opacity="0.12"/>
<stop offset="1" stop-color="#808080" stop-opacity="0.1"/>
</linearGradient>
<linearGradient id="paint1_linear_6_373" x1="67278.1" y1="139501" x2="67278.1" y2="44612.4" gradientUnits="userSpaceOnUse">
<stop stop-color="#808080" stop-opacity="0.25"/>
<stop offset="0.54" stop-color="#808080" stop-opacity="0.12"/>
<stop offset="1" stop-color="#808080" stop-opacity="0.1"/>
</linearGradient>
</defs>
</svg>
